<svg width="614" height="424" viewBox="0 0 614 424" fill="none" xmlns="http://www.w3.org/2000/svg">
<path d="M122.335 424C189.899 424 244.671 419.871 244.671 414.778C244.671 409.685 189.899 405.556 122.335 405.556C54.7714 405.556 0 409.685 0 414.778C0 419.871 54.7714 424 122.335 424Z" fill="#E6E6E6"/>
<path d="M93.511 94.0782C114.801 85.0904 141.318 90.785 167.215 94.7372C167.456 89.951 170.377 84.126 167.317 80.7869C163.6 76.7302 163.942 72.4678 166.179 68.1808C171.899 57.2183 163.704 45.5536 155.429 35.8545C153.564 33.6733 151.206 31.9595 148.549 30.8523C145.891 29.7451 143.007 29.2758 140.133 29.4824L124.804 30.5691C121.074 30.8335 117.514 32.2223 114.601 34.5496C111.688 36.877 109.56 40.0318 108.503 43.592V43.592C104.843 48.5328 102.884 53.4599 104.117 58.3613C98.6349 62.0799 97.7138 66.5686 100.177 71.6288C102.266 74.8149 102.244 77.9163 100.082 80.9318C97.2433 84.7764 95.0688 89.0633 93.648 93.6166L93.511 94.0782Z" fill="#2F2E41"/>
<path d="M599.45 366.541H165.533C161.674 366.541 157.974 365.02 155.245 362.312C152.517 359.603 150.984 355.93 150.984 352.1C308.279 333.956 462.617 333.956 614 352.1C614 355.93 612.467 359.603 609.739 362.312C607.01 365.02 603.309 366.541 599.45 366.541Z" fill="#2F2E41"/>
<path d="M614 352.95L150.984 352.1L204.646 262.483L204.902 262.058V64.5503C204.902 62.153 205.378 59.7791 206.302 57.5643C207.226 55.3494 208.581 53.3369 210.289 51.6417C211.997 49.9466 214.024 48.602 216.256 47.6846C218.488 46.7673 220.879 46.2953 223.295 46.2955H539.121C541.537 46.2953 543.928 46.7673 546.16 47.6846C548.392 48.602 550.419 49.9466 552.127 51.6417C553.835 53.3369 555.19 55.3494 556.114 57.5643C557.038 59.7791 557.514 62.153 557.514 64.5503V263.417L614 352.95Z" fill="#3F3D56"/>
<path d="M222.875 59.0373C221.287 59.0391 219.764 59.6661 218.641 60.7809C217.518 61.8956 216.886 63.407 216.884 64.9835V245.069C216.886 246.645 217.518 248.157 218.641 249.271C219.764 250.386 221.287 251.013 222.875 251.015H542.108C543.697 251.013 545.219 250.386 546.342 249.271C547.466 248.156 548.097 246.645 548.099 245.069V64.9835C548.097 63.4071 547.466 61.8957 546.343 60.781C545.219 59.6662 543.697 59.0392 542.108 59.0373H222.875Z" fill="white"/>
<path d="M224.213 274.8C223.722 274.801 223.242 274.941 222.828 275.203C222.415 275.466 222.086 275.841 221.88 276.283L205.345 311.96C205.165 312.348 205.087 312.775 205.116 313.202C205.146 313.628 205.284 314.04 205.516 314.4C205.748 314.76 206.068 315.056 206.446 315.261C206.823 315.466 207.247 315.574 207.678 315.574H555.398C555.836 315.574 556.266 315.463 556.649 315.251C557.031 315.04 557.352 314.735 557.582 314.365C557.812 313.995 557.943 313.574 557.963 313.14C557.983 312.706 557.89 312.274 557.694 311.886L539.721 276.208C539.509 275.784 539.182 275.427 538.776 275.178C538.37 274.93 537.903 274.798 537.425 274.8H224.213Z" fill="#2F2E41"/>
<path d="M381.208 56.0642C383.335 56.0642 385.059 54.3528 385.059 52.2417C385.059 50.1305 383.335 48.4191 381.208 48.4191C379.081 48.4191 377.357 50.1305 377.357 52.2417C377.357 54.3528 379.081 56.0642 381.208 56.0642Z" fill="white"/>
<path d="M347.03 322.369C346.466 322.37 345.917 322.555 345.469 322.896C345.021 323.237 344.698 323.714 344.551 324.255L340.403 339.545C340.301 339.923 340.287 340.319 340.364 340.703C340.44 341.086 340.605 341.448 340.844 341.758C341.084 342.069 341.393 342.32 341.746 342.493C342.099 342.666 342.488 342.756 342.882 342.756H421.761C422.17 342.756 422.573 342.659 422.937 342.473C423.301 342.287 423.615 342.017 423.852 341.686C424.089 341.355 424.244 340.973 424.302 340.57C424.36 340.168 424.32 339.758 424.186 339.374L418.854 324.084C418.679 323.583 418.351 323.149 417.917 322.842C417.482 322.535 416.961 322.37 416.428 322.369H347.03Z" fill="#2F2E41"/>
<path d="M557.514 259.085V262.482H204.646L204.911 262.058V259.085H557.514Z" fill="#2F2E41"/>
<path d="M547.672 69.6555C549.562 69.6555 551.095 68.1343 551.095 66.2577C551.095 64.3812 549.562 62.8599 547.672 62.8599C545.781 62.8599 544.248 64.3812 544.248 66.2577C544.248 68.1343 545.781 69.6555 547.672 69.6555Z" fill="white"/>
<path d="M505.849 189.932H259.134C257.923 189.93 256.762 189.452 255.905 188.602C255.049 187.752 254.567 186.599 254.566 185.397V124.655C254.567 123.453 255.049 122.3 255.905 121.45C256.762 120.6 257.923 120.122 259.134 120.12H505.849C507.061 120.122 508.222 120.6 509.078 121.45C509.935 122.3 510.417 123.453 510.418 124.655V185.397C510.417 186.599 509.935 187.752 509.078 188.602C508.222 189.452 507.061 189.93 505.849 189.932V189.932ZM259.134 121.934C258.408 121.935 257.711 122.222 257.197 122.732C256.683 123.242 256.394 123.934 256.393 124.655V185.397C256.394 186.119 256.683 186.81 257.197 187.32C257.711 187.83 258.408 188.117 259.134 188.118H505.849C506.576 188.117 507.273 187.83 507.787 187.32C508.301 186.81 508.59 186.119 508.591 185.397V124.655C508.59 123.934 508.301 123.242 507.787 122.732C507.273 122.222 506.576 121.935 505.849 121.934L259.134 121.934Z" fill="#E6E6E6"/>
<path d="M297.469 171.167C307.747 171.167 316.08 162.897 316.08 152.695C316.08 142.494 307.747 134.224 297.469 134.224C287.19 134.224 278.858 142.494 278.858 152.695C278.858 162.897 287.19 171.167 297.469 171.167Z" fill="#E6E6E6"/>
<path d="M340.451 140.381C340.043 140.38 339.639 140.459 339.262 140.614C338.886 140.768 338.543 140.995 338.255 141.281C337.966 141.567 337.737 141.906 337.581 142.28C337.425 142.654 337.344 143.055 337.344 143.46C337.344 143.864 337.425 144.265 337.581 144.639C337.737 145.013 337.966 145.352 338.255 145.638C338.543 145.924 338.886 146.151 339.262 146.305C339.639 146.46 340.043 146.539 340.451 146.538H486.679C487.501 146.538 488.29 146.214 488.872 145.636C489.454 145.059 489.781 144.276 489.781 143.46C489.781 142.643 489.454 141.86 488.872 141.283C488.29 140.705 487.501 140.381 486.679 140.381H340.451Z" fill="#E6E6E6"/>
<path d="M340.451 158.853C339.628 158.853 338.839 159.177 338.258 159.754C337.676 160.332 337.349 161.115 337.349 161.931C337.349 162.748 337.676 163.531 338.258 164.108C338.839 164.686 339.628 165.01 340.451 165.01H403.373C404.196 165.01 404.985 164.686 405.567 164.108C406.148 163.531 406.475 162.748 406.475 161.931C406.475 161.115 406.148 160.332 405.567 159.754C404.985 159.177 404.196 158.853 403.373 158.853H340.451Z" fill="#E6E6E6"/>
<path d="M204.039 160.098L158.431 184.164L157.854 164.109C172.74 161.643 186.902 157.348 199.997 150.357L204.767 138.661C205.287 137.386 206.132 136.268 207.219 135.415C208.305 134.563 209.597 134.005 210.966 133.798C212.336 133.59 213.736 133.739 215.03 134.231C216.323 134.723 217.466 135.54 218.345 136.603V136.603C219.632 138.157 220.275 140.139 220.144 142.147C220.014 144.154 219.119 146.037 217.642 147.415L204.039 160.098Z" fill="#FFB8B8"/>
<path d="M92.6019 299.045C92.2692 297.833 92.1985 296.566 92.3946 295.326C92.5907 294.086 93.049 292.901 93.7395 291.849L103.758 276.589C106.128 272.979 109.764 270.372 113.961 269.273C118.158 268.174 122.616 268.662 126.471 270.641V270.641C122.261 277.755 122.848 283.995 127.926 289.418C120.043 293.237 112.758 298.167 106.295 304.054C105.116 304.852 103.761 305.359 102.344 305.532C100.927 305.706 99.4882 305.54 98.1485 305.05C96.8088 304.56 95.6064 303.76 94.6416 302.715C93.6768 301.67 92.9775 300.412 92.6019 299.045V299.045Z" fill="#2F2E41"/>
<path d="M206.116 279.091C204.6 281.599 202.46 283.678 199.901 285.129C197.342 286.579 194.451 287.353 191.504 287.375L124.948 287.875L122.061 271.259L151.504 262.664L126.679 243.755L153.813 212.24L203.095 257.83C205.976 260.495 207.847 264.06 208.397 267.93C208.947 271.8 208.142 275.74 206.116 279.091V279.091Z" fill="#2F2E41"/>
<path d="M114.556 392.733H98.9687C84.9736 297.519 70.728 202.038 112.824 166.401L162.472 174.423L156.122 216.251L128.411 247.766L114.556 392.733Z" fill="#2F2E41"/>
<path d="M128.258 414.302C127.038 414.632 125.761 414.702 124.511 414.508C123.262 414.313 122.068 413.858 121.008 413.173L104.084 410.915C100.447 408.563 97.82 404.955 96.7125 400.789C95.605 396.624 96.096 392.198 98.0901 388.372C105.257 392.551 111.545 391.968 117.008 386.927C120.869 394.664 127.23 394.192 133.304 400.71C134.109 401.881 134.619 403.226 134.794 404.632C134.969 406.039 134.802 407.467 134.309 408.796C133.815 410.126 133.008 411.319 131.956 412.277C130.903 413.235 129.635 413.929 128.258 414.302V414.302Z" fill="#2F2E41"/>
<path d="M151.504 102.799L122.638 95.9229C127.432 86.1832 127.827 75.3457 125.525 63.8353L145.153 63.2624C145.768 77.5758 147.629 90.9481 151.504 102.799Z" fill="#FFB8B8"/>
<path d="M159.437 191.675C138.424 205.887 123.577 192.162 112.247 170.985C113.821 158.027 111.272 142.52 106.551 125.67C104.451 118.238 105.235 110.295 108.748 103.409C112.26 96.5223 118.247 91.1934 125.525 88.474V88.474L150.349 98.7879C171.428 115.841 175.576 134.313 167.668 153.795L159.437 191.675Z" fill="#6C9EFF"/>
<path d="M98.9688 117.124L75.8765 129.156L116.865 153.222L122.569 167.185C122.949 168.117 123.135 169.116 123.114 170.122C123.092 171.127 122.865 172.118 122.446 173.033C122.026 173.949 121.424 174.77 120.674 175.446C119.924 176.123 119.044 176.641 118.086 176.969V176.969C116.997 177.341 115.836 177.459 114.694 177.312C113.552 177.165 112.46 176.757 111.503 176.121C110.545 175.485 109.75 174.638 109.178 173.646C108.606 172.654 108.273 171.544 108.205 170.402L107.628 160.671L55.5322 143.608C53.777 143.033 52.1765 142.069 50.8522 140.789C49.5278 139.51 48.5141 137.948 47.8881 136.221V136.221C46.9755 133.705 46.929 130.96 47.756 128.415C48.5829 125.87 50.2366 123.669 52.4583 122.156L94.3503 93.631L98.9688 117.124Z" fill="#FFB8B8"/>
<path d="M122.061 119.416C112.43 115.226 103.673 119.777 92.6184 123.427L90.8865 93.0579C101.863 87.2515 112.328 85.686 122.061 90.193L122.061 119.416Z" fill="#6C9EFF"/>
<path d="M133.582 78.305C143.76 78.305 152.011 70.1155 152.011 60.0133C152.011 49.9111 143.76 41.7216 133.582 41.7216C123.404 41.7216 115.152 49.9111 115.152 60.0133C115.152 70.1155 123.404 78.305 133.582 78.305Z" fill="#FFB8B8"/>
<path d="M155.629 57.7053C137.383 59.4791 123.479 56.5172 114.593 48.0838V41.2921H154.081L155.629 57.7053Z" fill="#2F2E41"/>
</svg>
